<svg xmlns="http://www.w3.org/2000/svg" version="1.1" xmlns:xlink="http://www.w3.org/1999/xlink" xmlns:svgjs="http://svgjs.dev/svgjs" width="142" height="152"><svg width="142" height="152" viewBox="0 0 142 152" fill="none" xmlns="http://www.w3.org/2000/svg">
<path d="M133.958 93.86C123.603 71.329 112.256 48.469 100.689 25.9378C98.596 21.7614 94.63 13.7383 91.105 9.4519C86.037 3.2972 78.546 0 70.945 0C63.344 0 55.853 3.2972 50.785 9.4519C47.26 13.7383 43.294 21.7614 41.201 25.9378C29.6338 48.469 18.287 71.329 7.9317 93.86C6.6098 96.827 3.4151 103.861 2.2033 107.048C0.771101 110.895 0 115.072 0 119.248C0 137.383 14.211 152 33.159 152C48.802 152 61.251 141.999 70.945 131.557C80.639 141.999 93.088 152 108.731 152C127.679 152 142 137.383 142 119.248C142 115.072 141.119 110.895 139.687 107.048C138.475 103.861 135.28 96.827 133.958 93.86ZM70.945 114.082C63.123 103.971 55.853 91.442 55.853 81.33C55.853 71.219 63.013 66.163 70.945 66.163C78.877 66.163 86.147 71.549 86.147 81.33C86.147 91.112 78.766 103.971 70.945 114.082ZM108.731 140.68C97.146 140.68 87.209 132.597 78.408 122.886C87.483 111.594 97.494 95.608 97.494 81.33C97.494 64.515 84.385 54.843 70.945 54.843C57.505 54.843 44.506 64.515 44.506 81.33C44.506 95.605 54.447 111.585 63.489 122.877C54.687 132.593 44.747 140.68 33.159 140.68C20.6005 140.68 11.3468 131.118 11.3468 119.248C11.3468 116.39 11.7874 113.753 12.7789 111.005C13.7704 108.477 16.9651 101.443 18.287 98.696C28.6424 76.165 39.769 53.524 51.336 30.9935C53.429 26.8171 56.954 19.893 59.598 16.7057C62.462 13.1887 66.428 11.3203 70.945 11.3203C75.462 11.3203 79.427 13.1887 82.292 16.7057C84.936 19.893 88.461 26.8171 90.554 30.9935C102.121 53.524 113.247 76.165 123.603 98.696C124.925 101.443 128.119 108.477 129.111 111.005C130.102 113.753 130.653 116.39 130.653 119.248C130.653 131.118 121.289 140.68 108.731 140.68Z" fill="#FF385C"></path>
</svg><style>@media (prefers-color-scheme: light) { :root { filter: none; } }
@media (prefers-color-scheme: dark) { :root { filter: none; } }
</style></svg>